ply
format ascii 1.0
comment Exported by Aspose.3D 24.2.0
element vertex 84
property float x
property float y
property float z
property float nx
property float ny
property float nz
property uchar red
property uchar green
property uchar blue
element face 52
property list uchar int vertex_index
end_header
0 -1 0 -0.6018183827400208 0 -0.7986329793930054 255 0 75
0 -2.0024046897888184 0 -0.6018184423446655 0 -0.7986329793930054 255 0 75
-0.7486124038696289 -1.4624135494232178 0.5641248226165771 -0.6608653664588928 0 -0.7505044341087341 255 0 75
-0.7486124038696289 -0.46000880002975464 0.5641248226165771 -0.6727762222290039 0 -0.7398459911346436 255 0 75
0 0 0 -0.6018183827400208 0 -0.7986329793930054 255 0 75
-0.7486124038696289 0.5399911999702454 0.5641248226165771 -0.6881813406944275 0 -0.7255387306213379 255 0 75
-1.498469591140747 -1.3569488525390625 1.384263515472412 -0.638535737991333 0 -0.7695922255516052 255 0 75
-1.498469591140747 -0.35454410314559937 1.384263515472412 -0.5457479357719421 0 -0.8379494547843933 255 0 75
-1.498469591140747 0.6454558968544006 1.384263515472412 -0.48861852288246155 0 -0.8724974393844604 255 0 75
-2.3785552978515625 -0.09527373313903809 1.6802470684051514 -0.43315666913986206 0 -0.9013186693191528 255 0 75
-2.3785552978515625 0.907131016254425 1.6802470684051514 -0.49518802762031555 0 -0.8687857389450073 255 0 75
-2.3785552978515625 1.9071309566497803 1.6802470684051514 -0.579204797744751 0 -0.815182089805603 255 0 75
-3.4333291053771973 0.46951210498809814 2.5899291038513184 -0.5352326035499573 0 -0.844704806804657 255 0 75
-3.4333291053771973 1.471916913986206 2.5899291038513184 -0.24337776005268097 0 -0.9699316024780273 255 0 75
-3.4333291053771973 2.471916675567627 2.5899291038513184 -0.04959116131067276 0 -0.9987695813179016 255 0 75
-4.010821342468262 1.8493551015853882 2.4608027935028076 -0.07186262309551239 0 -0.9974144697189331 255 0 75
-4.010821342468262 2.851759910583496 2.4608027935028076 -0.1349903792142868 0 -0.9908469915390015 255 0 75
-4.010821342468262 3.851759672164917 2.4608027935028076 -0.3124532401561737 0 -0.9499331116676331 255 0 75
-5.096976280212402 1.3782107830047607 3.0412440299987793 -0.27183225750923157 0 -0.9623447060585022 255 0 75
-5.096976280212402 2.380615711212158 3.0412440299987793 -0.2561739981174469 0 -0.966630756855011 255 0 75
-5.096976280212402 3.380615234375 3.0412440299987793 -0.24737446010112762 0 -0.9689199924468994 255 0 75
-6.620553016662598 2.252077102661133 3.0829038619995117 -0.19810619950294495 0 -0.980180561542511 255 0 75
-6.620553016662598 3.254481792449951 3.0829038619995117 -0.2135930359363556 0 -0.9769227504730225 255 0 75
-6.620553016662598 4.254481315612793 3.0829038619995117 -0.23817020654678345 0 -0.9712234139442444 255 0 75
-7.805800437927246 1.9919443130493164 3.5884478092193604 -0.24155226349830627 0 -0.9703878164291382 255 0 75
-7.805800437927246 2.9943490028381348 3.5884478092193604 -0.21924236416816711 0 -0.9756704568862915 255 0 75
-7.805800437927246 3.9943485260009766 3.5884478092193604 -0.20502129197120667 0 -0.9787574410438538 255 0 75
-9.084667205810547 2.696018695831299 3.638233184814453 -0.1604086309671402 0 -0.9870507121086121 255 0 75
-9.084667205810547 3.698423385620117 3.638233184814453 -0.17840267717838287 0 -0.9839574694633484 255 0 75
-9.084667205810547 4.698422908782959 3.638233184814453 -0.20362012088298798 0 -0.9790499806404114 255 0 75
-10.267877578735352 2.6604228019714355 4.030095100402832 -0.1686590164899826 0 -0.9856743812561035 255 0 75
-10.267877578735352 3.662827491760254 4.030095100402832 -0.113153837621212 0 -0.9935774803161621 255 0 75
-10.267877578735352 4.662827014923096 4.030095100402832 -0.07787521183490753 0 -0.9969630837440491 255 0 75
-11.291413307189941 3.4927024841308594 3.93460750579834 -0.032739851623773575 0 -0.9994639158248901 255 0 75
-11.291413307189941 4.495107173919678 3.93460750579834 -0.06993094831705093 0 -0.9975518584251404 255 0 75
-11.291413307189941 5.4951066970825195 3.93460750579834 -0.12200117856264114 0 -0.9925299286842346 255 0 75
-12.487000465393066 3.6797728538513184 4.2183308601379395 -0.1254510134458542 0 -0.9920998215675354 255 0 75
-12.487000465393066 4.682177543640137 4.2183308601379395 -0.07701031863689423 0 -0.9970303177833557 255 0 75
-12.487000465393066 5.6821770668029785 4.2183308601379395 -0.042032718658447266 0 -0.9991162419319153 255 0 75
-13.557924270629883 4.520298957824707 4.133739471435547 0.07874392718076706 0 -0.9968949556350708 255 0 75
-13.557924270629883 5.522703647613525 4.133739471435547 0.07874391973018646 0 -0.996894896030426 255 0 75
-13.557924270629883 6.522703170776367 4.133739471435547 0.07874391227960587 0 -0.9968949556350708 255 0 75
-1.241166114807129 -7.793152809143066 0.3319895267486572 -0.7793757915496826 -0.47250697016716003 -0.4114735722541809 255 0 75
-1.0470952987670898 -8.601290702819824 0.8924047946929932 -0.7793759107589722 -0.4725068509578705 -0.4114736020565033 255 0 75
-1.710212230682373 -7.832188606262207 1.265239953994751 -0.822475016117096 -0.4440319538116455 -0.3554863929748535 255 0 75
-1.9042835235595703 -7.024051666259766 0.7048242092132568 -0.8309181332588196 -0.43772605061531067 -0.34346911311149597 255 0 75
-1.43477201461792 -6.986954689025879 -0.2270810604095459 -0.7793756723403931 -0.47250717878341675 -0.4114736318588257 255 0 75
-2.0978894233703613 -6.217852592468262 0.1457531452178955 -0.841700553894043 -0.4292612075805664 -0.32752853631973267 255 0 75
-2.2228384017944336 -7.261932373046875 2.0764474868774414 -0.8064102530479431 -0.45532533526420593 -0.3773345649242401 255 0 75
-2.416909694671631 -6.453795433044434 1.5160319805145264 -0.7367647290229797 -0.49576839804649353 -0.4597732424736023 255 0 75
-2.610515594482422 -5.64759635925293 0.9569610357284546 -0.6918950080871582 -0.5162085294723511 -0.5047871470451355 255 0 75
-3.2206525802612305 -6.06965446472168 1.8845586776733398 -0.6470900177955627 -0.5332605242729187 -0.544892430305481 255 0 75
-3.4147238731384277 -5.261516571044922 1.3241429328918457 -0.6971234083175659 -0.5140125751495361 -0.4998098611831665 255 0 75
-3.6083295345306396 -4.455318450927734 0.7650721073150635 -0.7623729705810547 -0.4822983145713806 -0.4314807653427124 255 0 75
-4.086712837219238 -5.076116561889648 2.6069672107696533 -0.728610098361969 -0.49976521730422974 -0.46836110949516296 255 0 75
-4.2807841300964355 -4.267978668212891 2.046551465988159 -0.485860675573349 -0.5738550424575806 -0.6592646837234497 255 0 75
-4.474390029907227 -3.461780071258545 1.487480640411377 -0.31035116314888 -0.5909168720245361 -0.7446472644805908 255 0 75
-4.933621406555176 -4.040085315704346 1.9261412620544434 -0.3310388922691345 -0.5901151299476624 -0.7363269329071045 255 0 75
-5.127692699432373 -3.231947898864746 1.3657259941101074 -0.38895854353904724 -0.5862293243408203 -0.7106662392616272 255 0 75
-5.321298122406006 -2.4257493019104004 0.8066551685333252 -0.545857310295105 -0.562022864818573 -0.6214258670806885 255 0 75
-5.715631484985352 -4.0765061378479 2.9871573448181152 -0.5107468962669373 -0.5693661570549011 -0.6441736817359924 255 0 75
-5.909702777862549 -3.268368721008301 2.4267420768737793 -0.4970814883708954 -0.5719019770622253 -0.6525627374649048 255 0 75
-6.103308200836182 -2.462170362472534 1.8676713705062866 -0.4893704056739807 -0.5732564330101013 -0.6571862697601318 255 0 75
-7.313520431518555 -3.347348690032959 3.0289058685302734 -0.4457853436470032 -0.5799187421798706 -0.6818868517875671 255 0 75
-7.507591724395752 -2.5392112731933594 2.4684903621673584 -0.4595600664615631 -0.5779911875724792 -0.6743372082710266 255 0 75
-7.701197624206543 -1.7330127954483032 1.9094197750091553 -0.48128071427345276 -0.5746191740036011 -0.6619529128074646 255 0 75
-8.24977970123291 -3.257965087890625 3.9473204612731934 -0.48425590991973877 -0.5741249322891235 -0.6602097153663635 255 0 75
-8.44385051727295 -2.4498276710510254 3.386904716491699 -0.4645681381225586 -0.5772502422332764 -0.671534538269043 255 0 75
-8.637455940246582 -1.6436290740966797 2.827834367752075 -0.45194441080093384 -0.5790767073631287 -0.6785399913787842 255 0 75
-9.581415176391602 -2.660885810852051 4.010107040405273 -0.41197583079338074 -0.583983302116394 -0.6994564533233643 255 0 75
-9.77548599243164 -1.8527483940124512 3.4496920108795166 -0.428163081407547 -0.5821533799171448 -0.6912118196487427 255 0 75
-9.96909236907959 -1.0465500354766846 2.8906211853027344 -0.4506974518299103 -0.579249918460846 -0.6792211532592773 255 0 75
-10.589211463928223 -2.457740068435669 4.715718746185303 -0.4194088876247406 -0.5831691026687622 -0.6957082748413086 255 0 75
-10.783283233642578 -1.6496026515960693 4.155303478240967 -0.36904436349868774 -0.5878450274467468 -0.7198920845985413 255 0 75
-10.976888656616211 -0.8434042930603027 3.5962326526641846 -0.3366013169288635 -0.5898480415344238 -0.7340155839920044 255 0 75
-11.742720603942871 -1.8432519435882568 4.512606143951416 -0.29461055994033813 -0.5913276076316833 -0.7506905794143677 255 0 75
-11.936792373657227 -1.0351145267486572 3.95219087600708 -0.329249769449234 -0.5901962518692017 -0.7370637655258179 255 0 75
-12.13039779663086 -0.22891616821289062 3.393120527267456 -0.3771284222602844 -0.5872250199317932 -0.7161989808082581 255 0 75
-12.833850860595703 -1.524572730064392 5.015399932861328 -0.38027483224868774 -0.5869706273078918 -0.7147423624992371 255 0 75
-13.027921676635742 -0.7164351940155029 4.454984664916992 -0.3358018696308136 -0.5898876786231995 -0.73434978723526 255 0 75
-13.221527099609375 0.08976316452026367 3.895914077758789 -0.30330029129981995 -0.5911218523979187 -0.7473847270011902 255 0 75
-14.03085994720459 -0.8969895839691162 4.831485271453857 -0.18858729302883148 -0.5898075103759766 -0.7852145433425903 255 0 75
-14.224931716918945 -0.0888521671295166 4.2710700035095215 -0.18858717381954193 -0.5898076295852661 -0.7852145433425903 255 0 75
-14.418537139892578 0.7173457145690918 3.7119994163513184 -0.18858711421489716 -0.5898076295852661 -0.7852145433425903 255 0 75
4 0 1 2 3
4 4 0 3 5
4 3 2 6 7
4 5 3 7 8
4 7 6 9 10
4 8 7 10 11
4 10 9 12 13
4 11 10 13 14
4 13 12 15 16
4 14 13 16 17
4 16 15 18 19
4 17 16 19 20
4 19 18 21 22
4 20 19 22 23
4 22 21 24 25
4 23 22 25 26
4 25 24 27 28
4 26 25 28 29
4 28 27 30 31
4 29 28 31 32
4 31 30 33 34
4 32 31 34 35
4 34 33 36 37
4 35 34 37 38
4 37 36 39 40
4 38 37 40 41
4 42 43 44 45
4 46 42 45 47
4 45 44 48 49
4 47 45 49 50
4 49 48 51 52
4 50 49 52 53
4 52 51 54 55
4 53 52 55 56
4 55 54 57 58
4 56 55 58 59
4 58 57 60 61
4 59 58 61 62
4 61 60 63 64
4 62 61 64 65
4 64 63 66 67
4 65 64 67 68
4 67 66 69 70
4 68 67 70 71
4 70 69 72 73
4 71 70 73 74
4 73 72 75 76
4 74 73 76 77
4 76 75 78 79
4 77 76 79 80
4 79 78 81 82
4 80 79 82 83
