ply
format ascii 1.0
comment meshmixer generated
element vertex 300
property float x
property float y
property float z
property float nx
property float ny
property float nz
property uchar red
property uchar green
property uchar blue
property uchar alpha
element face 196
property list uchar int vertex_indices
end_header
1.09511 13.1076 3.71636 -0.14125 -0.356685 0.923485 147 131 78 255
0.77895 13.1752 3.69412 -0.14125 -0.356685 0.923485 147 131 78 255
1.41128 13.0399 3.7386 -0.14125 -0.356685 0.923485 147 131 78 255
1.07428 12.984 3.63701 -0.151632 -0.464432 0.872531 147 131 78 255
0.757155 13.0473 3.61557 -0.151632 -0.464432 0.872531 147 131 78 255
1.3914 12.9208 3.65845 -0.151632 -0.464432 0.872531 147 131 78 255
1.05937 12.87 3.54415 -0.163953 -0.539831 0.825653 147 131 78 255
0.741856 12.9305 3.52062 -0.163953 -0.539831 0.825653 147 131 78 255
1.37689 12.8096 3.56767 -0.163953 -0.539831 0.825653 147 131 78 255
1.04863 12.7703 3.43398 -0.161221 -0.583458 0.79598 147 131 78 255
0.730493 12.828 3.41183 -0.161221 -0.583458 0.79598 147 131 78 255
1.36676 12.7126 3.45614 -0.161221 -0.583458 0.79598 147 131 78 255
1.04117 12.6807 3.31266 -0.161043 -0.637742 0.753227 147 131 78 255
0.722068 12.7312 3.28722 -0.161043 -0.637742 0.753227 147 131 78 255
1.36027 12.6302 3.33811 -0.161043 -0.637742 0.753227 147 131 78 255
1.04059 12.5956 3.18784 -0.164419 -0.670968 0.723027 147 131 78 255
0.720969 12.6359 3.15258 -0.164419 -0.670968 0.723027 147 131 78 255
1.36021 12.5553 3.22311 -0.164419 -0.670968 0.723027 147 131 78 255
1.04823 12.5164 3.0606 -0.160234 -0.715611 0.679872 147 131 78 255
0.728504 12.5469 3.01734 -0.160234 -0.715611 0.679872 147 131 78 255
1.36796 12.4859 3.10387 -0.160234 -0.715611 0.679872 147 131 78 255
1.0615 12.4461 2.92806 -0.160127 -0.751642 0.639839 147 131 78 255
0.742118 12.4737 2.88047 -0.160127 -0.751642 0.639839 147 131 78 255
1.38088 12.4186 2.97564 -0.160127 -0.751642 0.639839 147 131 78 255
1.07716 12.3849 2.79038 -0.155529 -0.771936 0.616381 147 131 78 255
0.757686 12.4112 2.74268 -0.155529 -0.771936 0.616381 147 131 78 255
1.39662 12.3586 2.83808 -0.155529 -0.771936 0.616381 147 131 78 255
1.09377 12.3316 2.64883 -0.151717 -0.790451 0.593438 147 131 78 255
0.774218 12.3573 2.60136 -0.151717 -0.790451 0.593438 147 131 78 255
1.41332 12.3059 2.6963 -0.151717 -0.790451 0.593438 147 131 78 255
1.11157 12.2829 2.50349 -0.147433 -0.818282 0.555588 147 131 78 255
0.792129 12.3072 2.4546 -0.147433 -0.818282 0.555588 147 131 78 255
1.43101 12.2585 2.55238 -0.147433 -0.818282 0.555588 147 131 78 255
1.13088 12.2334 2.35739 -0.140744 -0.842755 0.519572 147 131 78 255
0.811612 12.2552 2.30622 -0.140744 -0.842755 0.519572 147 131 78 255
1.45015 12.2116 2.40857 -0.140744 -0.842755 0.519572 147 131 78 255
1.15104 12.1811 2.21394 -0.135814 -0.86586 0.4815 147 131 78 255
0.83185 12.2024 2.16205 -0.135814 -0.86586 0.4815 147 131 78 255
1.47024 12.1599 2.26582 -0.135814 -0.86586 0.4815 147 131 78 255
1.17038 12.1285 2.07152 -0.13465 -0.880891 0.453763 147 131 78 255
0.850947 12.1518 2.02211 -0.13465 -0.880891 0.453763 147 131 78 255
1.48982 12.1051 2.12093 -0.13465 -0.880891 0.453763 147 131 78 255
1.18805 12.0784 1.92599 -0.126392 -0.898627 0.420113 147 131 78 255
0.868013 12.1023 1.88091 -0.126392 -0.898627 0.420113 147 131 78 255
1.50808 12.0544 1.97107 -0.126392 -0.898627 0.420113 147 131 78 255
1.20475 12.0309 1.77555 -0.12148 -0.917839 0.377908 147 131 78 255
0.88446 12.0558 1.73285 -0.12148 -0.917839 0.377908 147 131 78 255
1.52505 12.0061 1.81825 -0.12148 -0.917839 0.377908 147 131 78 255
1.22134 11.986 1.62255 -0.109782 -0.932579 0.343867 147 131 78 255
0.900828 12.008 1.57997 -0.109782 -0.932579 0.343867 147 131 78 255
1.54185 11.964 1.66513 -0.109782 -0.932579 0.343867 147 131 78 255
1.23939 11.9436 1.46963 -0.102258 -0.948401 0.300133 147 131 78 255
0.919433 11.963 1.42193 -0.102258 -0.948401 0.300133 147 131 78 255
1.55936 11.9242 1.51732 -0.102258 -0.948401 0.300133 147 131 78 255
1.2617 11.9018 1.31746 -0.0900016 -0.963735 0.251226 147 131 78 255
0.942919 11.9169 1.2611 -0.0900016 -0.963735 0.251226 147 131 78 255
1.58049 11.8867 1.37381 -0.0900016 -0.963735 0.251226 147 131 78 255
1.28893 11.8616 1.16731 -0.0862369 -0.971836 0.219315 147 131 78 255
0.971401 11.8755 1.10401 -0.0862369 -0.971836 0.219315 147 131 78 255
1.60646 11.8477 1.23062 -0.0862369 -0.971836 0.219315 147 131 78 255
1.31794 11.8278 1.01907 -0.0801481 -0.979031 0.187284 147 131 78 255
1.00028 11.8418 0.956414 -0.0801481 -0.979031 0.187284 147 131 78 255
1.63559 11.8138 1.08172 -0.0801481 -0.979031 0.187284 147 131 78 255
1.34491 11.8017 0.870144 -0.0722815 -0.983302 0.167012 147 131 78 255
1.02601 11.8156 0.814134 -0.0722815 -0.983302 0.167012 147 131 78 255
1.66381 11.7877 0.926153 -0.0722815 -0.983302 0.167012 147 131 78 255
1.3686 11.7819 0.719159 -0.0710529 -0.984161 0.162413 147 131 78 255
1.04872 11.7968 0.669306 -0.0710529 -0.984161 0.162413 147 131 78 255
1.68847 11.767 0.769012 -0.0710529 -0.984161 0.162413 147 131 78 255
1.39054 11.7669 0.566968 -0.0647148 -0.987419 0.144278 147 131 78 255
1.07016 11.781 0.52023 -0.0647148 -0.987419 0.144278 147 131 78 255
1.71092 11.7527 0.613705 -0.0647148 -0.987419 0.144278 147 131 78 255
1.41165 11.7549 0.415886 -0.062184 -0.98852 0.137702 147 131 78 255
1.09079 11.7691 0.372591 -0.062184 -0.98852 0.137702 147 131 78 255
1.73251 11.7408 0.45918 -0.062184 -0.98852 0.137702 147 131 78 255
1.43015 11.7458 0.266666 -0.0554676 -0.990185 0.128287 147 131 78 255
1.10858 11.7589 0.228678 -0.0554676 -0.990185 0.128287 147 131 78 255
1.75173 11.7327 0.304654 -0.0554676 -0.990185 0.128287 147 131 78 255
1.44626 11.7369 0.116667 -0.0490705 -0.993658 0.101174 147 131 78 255
1.12425 11.7493 0.0823249 -0.0490705 -0.993658 0.101174 147 131 78 255
1.76827 11.7245 0.151009 -0.0490705 -0.993658 0.101174 147 131 78 255
1.46154 11.7251 -0.0351601 -0.0506119 -0.994537 0.0912959 147 131 78 255
1.13915 11.7387 -0.0653299 -0.0506119 -0.994537 0.0912959 147 131 78 255
1.78392 11.7114 -0.00499034 -0.0506119 -0.994537 0.0912959 147 131 78 255
1.47362 11.7133 -0.186268 -0.0502209 -0.994923 0.0872102 147 131 78 255
1.15064 11.7277 -0.208708 -0.0502209 -0.994923 0.0872102 147 131 78 255
1.79661 11.699 -0.163829 -0.0502209 -0.994923 0.0872102 147 131 78 255
1.4815 11.7043 -0.33523 -0.0460634 -0.99776 0.0485022 147 131 78 255
1.15821 11.7183 -0.35299 -0.0460634 -0.99776 0.0485022 147 131 78 255
1.80478 11.6902 -0.31747 -0.0460634 -0.99776 0.0485022 147 131 78 255
1.48921 11.696 -0.483651 -0.0501279 -0.998176 0.0336376 147 131 78 255
1.16608 11.7116 -0.503008 -0.0501279 -0.998176 0.0336376 147 131 78 255
1.81233 11.6804 -0.464293 -0.0501279 -0.998176 0.0336376 147 131 78 255
1.49874 11.6909 -0.633644 -0.0499589 -0.998746 0.00319311 147 131 78 255
1.1756 11.707 -0.652295 -0.0499589 -0.998746 0.00319311 147 131 78 255
1.82188 11.6748 -0.614993 -0.0499589 -0.998746 0.00319311 147 131 78 255
1.50647 11.6937 -0.784944 -0.0591015 -0.996615 -0.0571436 147 131 78 255
1.18313 11.7134 -0.794392 -0.0591015 -0.996615 -0.0571436 147 131 78 255
1.82981 11.674 -0.775497 -0.0591015 -0.996615 -0.0571436 147 131 78 255
1.50837 11.704 -0.935376 -0.0547446 -0.991744 -0.115961 147 131 78 255
1.18479 11.7215 -0.931451 -0.0547446 -0.991744 -0.115961 147 131 78 255
1.83196 11.6866 -0.939301 -0.0547446 -0.991744 -0.115961 147 131 78 255
1.50449 11.724 -1.08407 -0.0530596 -0.985688 -0.160011 147 131 78 255
1.18119 11.7387 -1.06718 -0.0530596 -0.985688 -0.160011 147 131 78 255
1.8278 11.7094 -1.10097 -0.0530596 -0.985688 -0.160011 147 131 78 255
1.49545 11.7603 -1.23087 -0.0648432 -0.974328 -0.215592 147 131 78 255
1.1732 11.7748 -1.19972 -0.0648432 -0.974328 -0.215592 147 131 78 255
1.8177 11.7457 -1.26201 -0.0648432 -0.974328 -0.215592 147 131 78 255
1.48052 11.8148 -1.37393 -0.0745512 -0.955268 -0.28619 147 131 78 255
1.15936 11.8275 -1.33245 -0.0745512 -0.955268 -0.28619 147 131 78 255
1.80169 11.8022 -1.41541 -0.0745512 -0.955268 -0.28619 147 131 78 255
1.46373 11.8807 -1.51306 -0.0803756 -0.936611 -0.341028 147 131 78 255
1.14234 11.8939 -1.47355 -0.0803756 -0.936611 -0.341028 147 131 78 255
1.78512 11.8675 -1.55256 -0.0803756 -0.936611 -0.341028 147 131 78 255
1.45189 11.9478 -1.65117 -0.0841266 -0.92349 -0.374285 147 131 78 255
1.12969 11.9648 -1.62077 -0.0841266 -0.92349 -0.374285 147 131 78 255
1.77409 11.9308 -1.68157 -0.0841266 -0.92349 -0.374285 147 131 78 255
1.44483 12.0144 -1.78813 -0.0800884 -0.916363 -0.392255 147 131 78 255
1.12236 12.0307 -1.7603 -0.0800884 -0.916363 -0.392255 147 131 78 255
1.7673 11.9982 -1.81595 -0.0800884 -0.916363 -0.392255 147 131 78 255
1.4358 12.0872 -1.91945 -0.0756082 -0.908081 -0.411913 147 131 78 255
1.11397 12.0974 -1.88273 -0.0756082 -0.908081 -0.411913 147 131 78 255
1.75763 12.0771 -1.95616 -0.0756082 -0.908081 -0.411913 147 131 78 255
1.4209 12.1722 -2.0416 -0.0678734 -0.902729 -0.424822 147 131 78 255
1.09994 12.1753 -1.9969 -0.0678734 -0.902729 -0.424822 147 131 78 255
1.74187 12.1691 -2.08629 -0.0678734 -0.902729 -0.424822 147 131 78 255
1.40508 12.2717 -2.15282 -0.0483525 -0.89478 -0.443881 147 131 78 255
1.08314 12.2707 -2.11567 -0.0483525 -0.89478 -0.443881 147 131 78 255
1.72702 12.2728 -2.18998 -0.0483525 -0.89478 -0.443881 147 131 78 255
1.39582 12.3842 -2.25316 -0.0417765 -0.873723 -0.484627 147 131 78 255
1.07251 12.3875 -2.23113 -0.0417765 -0.873723 -0.484627 147 131 78 255
1.71913 12.381 -2.27519 -0.0417765 -0.873723 -0.484627 147 131 78 255
1.39422 12.5038 -2.34659 -0.0187469 -0.852825 -0.521859 147 131 78 255
1.0702 12.5096 -2.34443 -0.0187469 -0.852825 -0.521859 147 131 78 255
1.71824 12.498 -2.34876 -0.0187469 -0.852825 -0.521859 147 131 78 255
1.3989 12.625 -2.43869 -0.00279727 -0.824766 -0.565467 147 131 78 255
1.07523 12.635 -2.45156 -0.00279727 -0.824766 -0.565467 147 131 78 255
1.72257 12.6151 -2.42581 -0.00279727 -0.824766 -0.565467 147 131 78 255
1.409 12.7454 -2.53166 0.00108606 -0.791431 -0.611257 147 131 78 255
1.08594 12.7608 -2.55219 0.00108606 -0.791431 -0.611257 147 131 78 255
1.73206 12.73 -2.51112 0.00108606 -0.791431 -0.611257 147 131 78 255
1.42179 12.8609 -2.62259 0.00887568 -0.76741 -0.641095 147 131 78 255
1.0996 12.881 -2.65111 0.00887568 -0.76741 -0.641095 147 131 78 255
1.74399 12.8408 -2.59407 0.00887568 -0.76741 -0.641095 147 131 78 255
1.43725 12.9595 -2.70353 0.0188684 -0.758447 -0.651462 147 131 78 255
1.11731 12.9883 -2.74637 0.0188684 -0.758447 -0.651462 147 131 78 255
1.75719 12.9306 -2.66069 0.0188684 -0.758447 -0.651462 147 131 78 255
1.45687 13.0372 -2.77164 -0.00678467 -0.761989 -0.647554 147 131 78 255
1.13855 13.0782 -2.81655 -0.00678467 -0.761989 -0.647554 147 131 78 255
1.77519 12.9962 -2.72673 -0.00678467 -0.761989 -0.647554 147 131 78 255
1.37104 13.1674 3.68661 0.0101649 -0.532889 0.846124 147 131 78 255
1.04758 13.1824 3.69992 0.0101649 -0.532889 0.846124 147 131 78 255
1.6945 13.1524 3.6733 0.0101649 -0.532889 0.846124 147 131 78 255
1.36219 13.0428 3.61162 0.00190461 -0.582629 0.812736 147 131 78 255
1.03832 13.052 3.61895 0.00190461 -0.582629 0.812736 147 131 78 255
1.68606 13.0336 3.60429 0.00190461 -0.582629 0.812736 147 131 78 255
1.36053 12.9303 3.51778 0.00554014 -0.614855 0.788621 147 131 78 255
1.03652 12.9241 3.51525 0.00554014 -0.614855 0.788621 147 131 78 255
1.68454 12.9364 3.52032 0.00554014 -0.614855 0.788621 147 131 78 255
1.36786 12.8346 3.40371 0.00474865 -0.654946 0.75566 147 131 78 255
1.04477 12.8145 3.38834 0.00474865 -0.654946 0.75566 147 131 78 255
1.69095 12.8547 3.41907 0.00474865 -0.654946 0.75566 147 131 78 255
1.38292 12.7546 3.27731 0.0111903 -0.674752 0.737959 147 131 78 255
1.06165 12.7209 3.25131 0.0111903 -0.674752 0.737959 147 131 78 255
1.70418 12.7884 3.3033 0.0111903 -0.674752 0.737959 147 131 78 255
1.40455 12.6851 3.14468 0.0168425 -0.699188 0.714739 147 131 78 255
1.08533 12.6416 3.10963 0.0168425 -0.699188 0.714739 147 131 78 255
1.72378 12.7286 3.17973 0.0168425 -0.699188 0.714739 147 131 78 255
1.43067 12.6187 3.01116 0.0269791 -0.71528 0.698317 147 131 78 255
1.11287 12.5686 2.97213 0.0269791 -0.71528 0.698317 147 131 78 255
1.74846 12.6688 3.05019 0.0269791 -0.71528 0.698317 147 131 78 255
1.45806 12.5512 2.88076 0.0278303 -0.723893 0.68935 147 131 78 255
1.14039 12.501 2.84089 0.0278303 -0.723893 0.68935 147 131 78 255
1.77574 12.6014 2.92063 0.0278303 -0.723893 0.68935 147 131 78 255
1.48477 12.4808 2.75372 0.0273961 -0.73904 0.673104 147 131 78 255
1.16645 12.4338 2.71508 0.0273961 -0.73904 0.673104 147 131 78 255
1.80308 12.5278 2.79236 0.0273961 -0.73904 0.673104 147 131 78 255
1.5103 12.4049 2.62837 0.0237712 -0.757485 0.65242 147 131 78 255
1.19101 12.3632 2.59165 0.0237712 -0.757485 0.65242 147 131 78 255
1.82958 12.4465 2.66509 0.0237712 -0.757485 0.65242 147 131 78 255
1.53401 12.3246 2.50243 0.0185244 -0.773196 0.633897 147 131 78 255
1.21364 12.2893 2.4687 0.0185244 -0.773196 0.633897 147 131 78 255
1.85439 12.36 2.53615 0.0185244 -0.773196 0.633897 147 131 78 255
1.55474 12.2447 2.37377 0.0114729 -0.792538 0.609714 147 131 78 255
1.2332 12.2172 2.34403 0.0114729 -0.792538 0.609714 147 131 78 255
1.87627 12.2723 2.40351 0.0114729 -0.792538 0.609714 147 131 78 255
1.57147 12.1695 2.2411 0.00869484 -0.805782 0.592149 147 131 78 255
1.24892 12.1486 2.21748 0.00869484 -0.805782 0.592149 147 131 78 255
1.89401 12.1903 2.26473 0.00869484 -0.805782 0.592149 147 131 78 255
1.58374 12.1029 2.10275 0.0037954 -0.816491 0.577346 147 131 78 255
1.26039 12.0894 2.0858 0.0037954 -0.816491 0.577346 147 131 78 255
1.90709 12.1164 2.1197 0.0037954 -0.816491 0.577346 147 131 78 255
1.59139 12.0474 1.95782 0.0048644 -0.836344 0.548183 147 131 78 255
1.2676 12.0386 1.94733 0.0048644 -0.836344 0.548183 147 131 78 255
1.91518 12.0561 1.9683 0.0048644 -0.836344 0.548183 147 131 78 255
1.59602 12.0004 1.80878 0.0076703 -0.857666 0.51415 147 131 78 255
1.27221 11.9916 1.79896 0.0076703 -0.857666 0.51415 147 131 78 255
1.91983 12.0091 1.8186 0.0076703 -0.857666 0.51415 147 131 78 255
1.60285 11.9573 1.66015 0.0122443 -0.882399 0.470342 147 131 78 255
1.27965 11.9428 1.64123 0.0122443 -0.882399 0.470342 147 131 78 255
1.92604 11.9719 1.67906 0.0122443 -0.882399 0.470342 147 131 78 255
1.61688 11.9181 1.51443 0.012257 -0.896502 0.44287 147 131 78 255
1.29526 11.897 1.48061 0.012257 -0.896502 0.44287 147 131 78 255
1.93849 11.9392 1.54825 0.012257 -0.896502 0.44287 147 131 78 255
1.63806 11.885 1.36999 0.0163313 -0.911299 0.411421 147 131 78 255
1.31815 11.859 1.32516 0.0163313 -0.911299 0.411421 147 131 78 255
1.95797 11.911 1.41483 0.0163313 -0.911299 0.411421 147 131 78 255
1.66256 11.858 1.22339 0.0201831 -0.923889 0.382128 147 131 78 255
1.34323 11.8311 1.17509 0.0201831 -0.923889 0.382128 147 131 78 255
1.98188 11.885 1.27169 0.0201831 -0.923889 0.382128 147 131 78 255
1.6869 11.8366 1.07404 0.0257591 -0.93585 0.351456 147 131 78 255
1.36731 11.8103 1.02723 0.0257591 -0.93585 0.351456 147 131 78 255
2.0065 11.863 1.12085 0.0257591 -0.93585 0.351456 147 131 78 255
1.70944 11.8221 0.923522 0.0304195 -0.944971 0.325737 147 131 78 255
1.38928 11.7968 0.880138 0.0304195 -0.944971 0.325737 147 131 78 255
2.02961 11.8473 0.966907 0.0304195 -0.944971 0.325737 147 131 78 255
1.72985 11.8117 0.771582 0.0327721 -0.957725 0.285814 147 131 78 255
1.40916 11.7886 0.730996 0.0327721 -0.957725 0.285814 147 131 78 255
2.05055 11.8348 0.812168 0.0327721 -0.957725 0.285814 147 131 78 255
1.74966 11.8005 0.617986 0.0402352 -0.96313 0.266012 147 131 78 255
1.42921 11.7756 0.576533 0.0402352 -0.96313 0.266012 147 131 78 255
2.07012 11.8253 0.659438 0.0402352 -0.96313 0.266012 147 131 78 255
1.77137 11.7873 0.465265 0.0461389 -0.973394 0.224443 147 131 78 255
1.45153 11.7616 0.41974 0.0461389 -0.973394 0.224443 147 131 78 255
2.0912 11.8129 0.51079 0.0461389 -0.973394 0.224443 147 131 78 255
1.79501 11.7729 0.314826 0.0465743 -0.979976 0.193591 147 131 78 255
1.47518 11.7486 0.268569 0.0465743 -0.979976 0.193591 147 131 78 255
2.11485 11.7972 0.361083 0.0465743 -0.979976 0.193591 147 131 78 255
1.81696 11.7598 0.164499 0.0437029 -0.983345 0.176419 147 131 78 255
1.49602 11.7384 0.124936 0.0437029 -0.983345 0.176419 147 131 78 255
2.13791 11.7811 0.204061 0.0437029 -0.983345 0.176419 147 131 78 255
1.83373 11.7515 0.0121552 0.0488516 -0.985615 0.161789 147 131 78 255
1.51166 11.7307 -0.017277 0.0488516 -0.985615 0.161789 147 131 78 255
2.1558 11.7723 0.0415873 0.0488516 -0.985615 0.161789 147 131 78 255
1.84577 11.7468 -0.141703 0.0546536 -0.989545 0.133467 147 131 78 255
1.52313 11.726 -0.163958 0.0546536 -0.989545 0.133467 147 131 78 255
2.16841 11.7676 -0.119448 0.0546536 -0.989545 0.133467 147 131 78 255
1.85552 11.7427 -0.295387 0.0603721 -0.991806 0.112592 147 131 78 255
1.53285 11.7207 -0.316125 0.0603721 -0.991806 0.112592 147 131 78 255
2.17818 11.7647 -0.274648 0.0603721 -0.991806 0.112592 147 131 78 255
1.86593 11.7401 -0.448344 0.0673095 -0.992985 0.0972085 147 131 78 255
1.54382 11.7157 -0.474321 0.0673095 -0.992985 0.0972085 147 131 78 255
2.18804 11.7645 -0.422366 0.0673095 -0.992985 0.0972085 147 131 78 255
1.88024 11.7409 -0.600374 0.0715723 -0.99568 0.0591451 147 131 78 255
1.55893 11.7158 -0.634343 0.0715723 -0.99568 0.0591451 147 131 78 255
2.20155 11.766 -0.566404 0.0715723 -0.99568 0.0591451 147 131 78 255
1.8973 11.7466 -0.75006 0.0735477 -0.996777 0.0320294 147 131 78 255
1.5761 11.7217 -0.785243 0.0735477 -0.996777 0.0320294 147 131 78 255
2.2185 11.7714 -0.714876 0.0735477 -0.996777 0.0320294 147 131 78 255
1.9113 11.7607 -0.897827 0.075551 -0.997122 -0.00636543 147 131 78 255
1.5892 11.7364 -0.924125 0.075551 -0.997122 -0.00636543 147 131 78 255
2.2334 11.7849 -0.87153 0.075551 -0.997122 -0.00636543 147 131 78 255
1.91849 11.7861 -1.04649 0.0818279 -0.995757 -0.0420896 147 131 78 255
1.59578 11.7602 -1.06108 0.0818279 -0.995757 -0.0420896 147 131 78 255
2.2412 11.812 -1.03191 0.0818279 -0.995757 -0.0420896 147 131 78 255
1.91995 11.8204 -1.19621 0.080338 -0.990299 -0.113373 147 131 78 255
1.59694 11.795 -1.20283 0.080338 -0.990299 -0.113373 147 131 78 255
2.24296 11.8459 -1.18958 0.080338 -0.990299 -0.113373 147 131 78 255
1.91883 11.8595 -1.34449 0.0813448 -0.982085 -0.169979 147 131 78 255
1.59582 11.8333 -1.34816 0.0813448 -0.982085 -0.169979 147 131 78 255
2.24183 11.8856 -1.34083 0.0813448 -0.982085 -0.169979 147 131 78 255
1.9165 11.9043 -1.48969 0.083357 -0.97609 -0.200749 147 131 78 255
1.59357 11.8772 -1.49205 0.083357 -0.97609 -0.200749 147 131 78 255
2.23944 11.9314 -1.48733 0.083357 -0.97609 -0.200749 147 131 78 255
1.91267 11.9578 -1.63115 0.0824446 -0.967674 -0.238349 147 131 78 255
1.58971 11.9311 -1.63432 0.0824446 -0.967674 -0.238349 147 131 78 255
2.23563 11.9846 -1.62798 0.0824446 -0.967674 -0.238349 147 131 78 255
1.90971 12.0195 -1.76939 0.0884504 -0.955898 -0.280064 147 131 78 255
1.58693 11.9932 -1.78146 0.0884504 -0.955898 -0.280064 147 131 78 255
2.23249 12.0458 -1.75731 0.0884504 -0.955898 -0.280064 147 131 78 255
1.91242 12.0869 -1.90555 0.0943837 -0.941456 -0.323654 147 131 78 255
1.59039 12.0645 -1.93422 0.0943837 -0.941456 -0.323654 147 131 78 255
2.23444 12.1093 -1.87689 0.0943837 -0.941456 -0.323654 147 131 78 255
1.92394 12.159 -2.03852 0.0942163 -0.929417 -0.356801 147 131 78 255
1.60344 12.144 -2.08416 0.0942163 -0.929417 -0.356801 147 131 78 255
2.24444 12.174 -1.99288 0.0942163 -0.929417 -0.356801 147 131 78 255
1.94187 12.2398 -2.16296 0.0909774 -0.912047 -0.399866 147 131 78 255
1.62192 12.2301 -2.21359 0.0909774 -0.912047 -0.399866 147 131 78 255
2.26182 12.2495 -2.11233 0.0909774 -0.912047 -0.399866 147 131 78 255
1.95591 12.3353 -2.27432 0.0857833 -0.883854 -0.459829 147 131 78 255
1.63413 12.3231 -2.31087 0.0857833 -0.883854 -0.459829 147 131 78 255
2.27769 12.3475 -2.23777 0.0857833 -0.883854 -0.459829 147 131 78 255
1.9582 12.4442 -2.37543 0.0915234 -0.856925 -0.50725 147 131 78 255
1.63555 12.422 -2.39605 0.0915234 -0.856925 -0.50725 147 131 78 255
2.28085 12.4665 -2.35481 0.0915234 -0.856925 -0.50725 147 131 78 255
1.95304 12.5594 -2.4719 0.0998118 -0.840034 -0.533273 147 131 78 255
1.63059 12.5307 -2.48702 0.0998118 -0.840034 -0.533273 147 131 78 255
2.27549 12.5881 -2.45678 0.0998118 -0.840034 -0.533273 147 131 78 255
1.94624 12.6774 -2.56309 0.104127 -0.820417 -0.562204 147 131 78 255
1.62405 12.6444 -2.57458 0.104127 -0.820417 -0.562204 147 131 78 255
2.26843 12.7104 -2.5516 0.104127 -0.820417 -0.562204 147 131 78 255
1.93464 12.7981 -2.63949 0.103325 -0.812083 -0.574321 147 131 78 255
1.6134 12.7553 -2.63685 0.103325 -0.812083 -0.574321 147 131 78 255
2.25587 12.8408 -2.64213 0.103325 -0.812083 -0.574321 147 131 78 255
1.91393 12.9159 -2.69072 0.134745 -0.806809 -0.575242 147 131 78 255
1.59622 12.8533 -2.67741 0.134745 -0.806809 -0.575242 147 131 78 255
2.23163 12.9784 -2.70403 0.134745 -0.806809 -0.575242 147 131 78 255
1.88688 13.0256 -2.72095 0.129807 -0.811949 -0.569113 147 131 78 255
1.57168 12.9557 -2.69303 0.129807 -0.811949 -0.569113 147 131 78 255
2.20208 13.0956 -2.74887 0.129807 -0.811949 -0.569113 147 131 78 255
4 0 1 4 3
4 0 3 5 2
4 3 4 7 6
4 3 6 8 5
4 6 7 10 9
4 6 9 11 8
4 9 10 13 12
4 9 12 14 11
4 12 13 16 15
4 12 15 17 14
4 15 16 19 18
4 15 18 20 17
4 18 19 22 21
4 18 21 23 20
4 21 22 25 24
4 21 24 26 23
4 24 25 28 27
4 24 27 29 26
4 27 28 31 30
4 27 30 32 29
4 30 31 34 33
4 30 33 35 32
4 33 34 37 36
4 33 36 38 35
4 36 37 40 39
4 36 39 41 38
4 39 40 43 42
4 39 42 44 41
4 42 43 46 45
4 42 45 47 44
4 45 46 49 48
4 45 48 50 47
4 48 49 52 51
4 48 51 53 50
4 51 52 55 54
4 51 54 56 53
4 54 55 58 57
4 54 57 59 56
4 57 58 61 60
4 57 60 62 59
4 60 61 64 63
4 60 63 65 62
4 63 64 67 66
4 63 66 68 65
4 66 67 70 69
4 66 69 71 68
4 69 70 73 72
4 69 72 74 71
4 72 73 76 75
4 72 75 77 74
4 75 76 79 78
4 75 78 80 77
4 78 79 82 81
4 78 81 83 80
4 81 82 85 84
4 81 84 86 83
4 84 85 88 87
4 84 87 89 86
4 87 88 91 90
4 87 90 92 89
4 90 91 94 93
4 90 93 95 92
4 93 94 97 96
4 93 96 98 95
4 96 97 100 99
4 96 99 101 98
4 99 100 103 102
4 99 102 104 101
4 102 103 106 105
4 102 105 107 104
4 105 106 109 108
4 105 108 110 107
4 108 109 112 111
4 108 111 113 110
4 111 112 115 114
4 111 114 116 113
4 114 115 118 117
4 114 117 119 116
4 117 118 121 120
4 117 120 122 119
4 120 121 124 123
4 120 123 125 122
4 123 124 127 126
4 123 126 128 125
4 126 127 130 129
4 126 129 131 128
4 129 130 133 132
4 129 132 134 131
4 132 133 136 135
4 132 135 137 134
4 135 136 139 138
4 135 138 140 137
4 138 139 142 141
4 138 141 143 140
4 141 142 145 144
4 141 144 146 143
4 144 145 148 147
4 144 147 149 146
4 150 151 154 153
4 150 153 155 152
4 153 154 157 156
4 153 156 158 155
4 156 157 160 159
4 156 159 161 158
4 159 160 163 162
4 159 162 164 161
4 162 163 166 165
4 162 165 167 164
4 165 166 169 168
4 165 168 170 167
4 168 169 172 171
4 168 171 173 170
4 171 172 175 174
4 171 174 176 173
4 174 175 178 177
4 174 177 179 176
4 177 178 181 180
4 177 180 182 179
4 180 181 184 183
4 180 183 185 182
4 183 184 187 186
4 183 186 188 185
4 186 187 190 189
4 186 189 191 188
4 189 190 193 192
4 189 192 194 191
4 192 193 196 195
4 192 195 197 194
4 195 196 199 198
4 195 198 200 197
4 198 199 202 201
4 198 201 203 200
4 201 202 205 204
4 201 204 206 203
4 204 205 208 207
4 204 207 209 206
4 207 208 211 210
4 207 210 212 209
4 210 211 214 213
4 210 213 215 212
4 213 214 217 216
4 213 216 218 215
4 216 217 220 219
4 216 219 221 218
4 219 220 223 222
4 219 222 224 221
4 222 223 226 225
4 222 225 227 224
4 225 226 229 228
4 225 228 230 227
4 228 229 232 231
4 228 231 233 230
4 231 232 235 234
4 231 234 236 233
4 234 235 238 237
4 234 237 239 236
4 237 238 241 240
4 237 240 242 239
4 240 241 244 243
4 240 243 245 242
4 243 244 247 246
4 243 246 248 245
4 246 247 250 249
4 246 249 251 248
4 249 250 253 252
4 249 252 254 251
4 252 253 256 255
4 252 255 257 254
4 255 256 259 258
4 255 258 260 257
4 258 259 262 261
4 258 261 263 260
4 261 262 265 264
4 261 264 266 263
4 264 265 268 267
4 264 267 269 266
4 267 268 271 270
4 267 270 272 269
4 270 271 274 273
4 270 273 275 272
4 273 274 277 276
4 273 276 278 275
4 276 277 280 279
4 276 279 281 278
4 279 280 283 282
4 279 282 284 281
4 282 283 286 285
4 282 285 287 284
4 285 286 289 288
4 285 288 290 287
4 288 289 292 291
4 288 291 293 290
4 291 292 295 294
4 291 294 296 293
4 294 295 298 297
4 294 297 299 296